<?xml version="1.0" encoding="utf-8"?>
<!-- Generator: Adobe Illustrator 24.1.1, SVG Export Plug-In . SVG Version: 6.00 Build 0)  -->
<svg version="1.1" id="Layer_1" xmlns="http://www.w3.org/2000/svg" xmlns:xlink="http://www.w3.org/1999/xlink" x="0px" y="0px"
	 viewBox="0 0 512 512" style="enable-background:new 0 0 512 512;" xml:space="preserve">
<style type="text/css">
	.st0{fill:#FFFFFF;}
	.st1{fill:#A4C639;}
</style>
<g>
	<path class="st0" d="M171.9,0c-2.4,0-4.9,0.6-7.2,1.9c-7.2,4-9.8,13.3-5.9,20.4l16.3,29.4C135.9,75.9,110,117.3,110,164.6
		c0,0.2,0,0.5,0,0.8v0.3c0,0.2,0,0.4,0,0.4v7.3c-7.5-8.7-18.6-14.1-31-14.1c-22.6,0-41,18.4-41,41v126.4c0,22.6,18.4,41,41,41
		c12.4,0,23.4-5.5,31-14.1v17.7c0,23.9,19.5,43.4,43.4,43.4h11V471c0,22.6,18.4,41,41,41c22.6,0,41-18.4,41-41v-56.2h19.1V471
		c0,22.6,18.4,41,41,41c22.6,0,41-18.4,41-41v-56.2h11c23.9,0,43.4-19.5,43.4-43.4v-17.7c7.5,8.7,18.6,14.1,31,14.1
		c22.6,0,41-18.4,41-41V200.3c0-22.6-18.4-41-41-41c-12.4,0-23.4,5.5-31,14.1v-7.2v-0.1c0-0.2,0-0.4,0-0.4c0-0.4,0-0.8,0-1.1
		c0-47.3-26-88.6-65.2-112.9l16.3-29.4c4-7.2,1.3-16.5-5.9-20.4C345,0.6,342.5,0,340.1,0c-5.3-0.1-10.5,2.8-13.3,7.7l-17.1,30.8
		C293.1,32.4,274.9,29,256,29c-18.9,0-37.1,3.3-53.8,9.5L185.2,7.7C182.4,2.8,177.2-0.1,171.9,0z"/>
	<path class="st1" d="M79,170c-16.9,0-30.3,13.4-30.3,30.3v126.4c0,16.9,13.4,30.3,30.3,30.3c16.9,0,30.3-13.4,30.3-30.3V200.3
		C109.4,183.4,95.9,170,79,170z M433,170c-16.9,0-30.3,13.4-30.3,30.3v126.4c0,16.9,13.4,30.3,30.3,30.3c16.9,0,30.3-13.4,30.3-30.3
		V200.3C463.3,183.4,449.9,170,433,170z"/>
	<path class="st1" d="M205.4,314.2c-16.9,0-30.3,13.4-30.3,30.3V471c0,16.9,13.4,30.3,30.3,30.3c16.9,0,30.3-13.4,30.3-30.3V344.6
		C235.8,327.7,222.3,314.2,205.4,314.2z M306.6,314.2c-16.9,0-30.3,13.4-30.3,30.3V471c0,16.9,13.4,30.3,30.3,30.3
		c16.9,0,30.3-13.4,30.3-30.3V344.6C336.9,327.7,323.5,314.2,306.6,314.2z"/>
	<path class="st1" d="M172,10.7c-0.7,0-1.4,0.2-2,0.6c-2.2,1.2-2.9,3.7-1.7,5.9l21.4,38.6c-41.1,21.4-68.9,62.1-69,108.7h270.7
		c-0.1-46.7-27.8-87.3-69-108.7l21.4-38.6c1.2-2.2,0.5-4.7-1.7-5.9c-0.7-0.4-1.3-0.6-2-0.6c-1.5,0-3,0.8-3.8,2.2l-21.7,39
		C296.8,44.1,277,39.7,256,39.7s-40.8,4.4-58.6,12.3l-21.7-39C175,11.4,173.5,10.7,172,10.7z M120.7,175.2v196.2
		c0,18.1,14.6,32.7,32.7,32.7h205.2c18.1,0,32.7-14.6,32.7-32.7V175.2H120.7z"/>
	<path class="st0" d="M193.5,92.3c-6.2,0-11.3,5.1-11.3,11.3c0,6.2,5.1,11.3,11.3,11.3c6.2,0,11.3-5.1,11.3-11.3
		C204.8,97.5,199.7,92.3,193.5,92.3z M318.5,92.3c-6.2,0-11.3,5.1-11.3,11.3c0,6.2,5.1,11.3,11.3,11.3c6.2,0,11.3-5.1,11.3-11.3
		C329.8,97.5,324.6,92.3,318.5,92.3z"/>
</g>
</svg>
